HIERARCHY
ROOT hip
{
	OFFSET 0.000000 0.000000 0.000000 
	CHANNELS 6 Xposition Yposition Zposition Xrotation Zrotation Yrotation
	JOINT abdomen
	{
		OFFSET 0.000000 3.402643 0.000000 
		CHANNELS 3 Xrotation Zrotation Yrotation
		JOINT chest
		{
			OFFSET 0.000000 8.438565 -0.680529 
			CHANNELS 3 Xrotation Zrotation Yrotation
			JOINT neck
			{
				OFFSET 0.000000 10.207942 -0.272212 
				CHANNELS 3 Xrotation Zrotation Yrotation
				JOINT head
				{
					OFFSET 0.000000 3.130431 0.000000 
					CHANNELS 3 Xrotation Zrotation Yrotation
					End Site
					{
						OFFSET 0.000000 3.130435 0.000000 
					}
				}
			}
			JOINT lCollar
			{
				OFFSET 3.470700 6.669187 -0.816635 
				CHANNELS 3 Yrotation Zrotation Xrotation
				JOINT lShldr
				{
					OFFSET 3.198488 0.000000 0.000000 
					CHANNELS 3 Zrotation Yrotation Xrotation
					JOINT lForeArm
					{
						OFFSET 10.139888 0.000000 0.000000 
						CHANNELS 3 Yrotation Zrotation Xrotation
						JOINT lHand
						{
							OFFSET 8.370511 0.000000 0.000000 
							CHANNELS 3 Zrotation Yrotation Xrotation
							End Site
							{
								OFFSET 4.083176 0.000000 0.000000 
							}
						}
					}
				}
			}
			JOINT rCollar
			{
				OFFSET -3.470700 6.669187 -0.816635 
				CHANNELS 3 Yrotation Zrotation Xrotation
				JOINT rShldr
				{
					OFFSET -3.198488 0.000000 0.000000 
					CHANNELS 3 Zrotation Yrotation Xrotation
					JOINT rForeArm
					{
						OFFSET -10.139888 0.000000 0.000000 
						CHANNELS 3 Yrotation Zrotation Xrotation
						JOINT rHand
						{
							OFFSET -8.370511 0.000000 0.000000 
							CHANNELS 3 Zrotation Yrotation Xrotation
							End Site
							{
								OFFSET -4.083176 0.000000 0.000000 
							}
						}
					}
				}
			}
		}
	}
	JOINT lThigh
	{
		OFFSET 5.308129 -1.633274 1.361059 
		CHANNELS 3 Xrotation Zrotation Yrotation
		JOINT lShin
		{
			OFFSET -2.041588 -20.007561 0.000000 
			CHANNELS 3 Xrotation Zrotation Yrotation
			JOINT lFoot
			{
				OFFSET 0.000000 -19.190928 -1.224953 
				CHANNELS 3 Xrotation Yrotation Zrotation
				End Site
				{
					OFFSET 0.000000 -2.449906 4.627600 
				}
			}
		}
	}
	JOINT rThigh
	{
		OFFSET -5.308129 -1.633274 1.361059 
		CHANNELS 3 Xrotation Zrotation Yrotation
		JOINT rShin
		{
			OFFSET 2.041588 -20.007561 0.000000 
			CHANNELS 3 Xrotation Zrotation Yrotation
			JOINT rFoot
			{
				OFFSET 0.000000 -19.190928 -1.224953 
				CHANNELS 3 Xrotation Yrotation Zrotation
				End Site
				{
					OFFSET 0.000000 -2.449906 4.627600 
				}
			}
		}
	}
}
MOTION
Frames: 6
Frame Time: 0.011111
36.430035 45.847912 14.911509 -0.754637 4.833567 -97.553596 0.000000 0.000000 0.000000 12.266237 -9.919502 2.169910 19.449572 -12.521217 -12.519309 -15.115807 23.708117 -16.763260 -20.453281 -21.243116 -4.411779 -51.533485 -39.159245 26.327553 -94.375557 16.890606 20.055382 61.419868 7.526289 6.082167 2.546926 15.032943 -0.757705 60.931488 -5.552432 36.108891 68.595993 -10.964786 7.829818 -47.548359 11.308094 -8.326016 -34.223423 28.776957 -14.434104 41.772404 1.186708 -13.285782 5.743340 9.659350 -9.355284 -20.982151 -18.804901 -0.637845 53.162987 3.388807 14.860822 -21.157036 -26.017952 3.082152 
36.415108 45.683807 15.287390 -0.117649 5.078114 -96.826775 0.000000 0.000000 0.000000 12.889257 -10.115236 2.063536 19.920166 -12.485761 -13.112498 -16.181505 24.670349 -17.789717 -20.324520 -21.598120 -4.442735 -52.743183 -38.772457 27.218294 -92.677750 15.367777 18.180151 62.067303 6.885173 6.117214 2.764335 15.422130 -0.794852 60.064621 -5.601113 34.856880 68.901741 -11.808043 8.288533 -47.878124 10.091627 -9.689788 -34.169712 29.067732 -15.073255 40.883850 1.493988 -13.986118 5.577280 9.989205 -12.106377 -21.638998 -19.090328 -1.370543 54.275700 3.056924 15.223294 -20.141895 -25.777298 4.365511 
36.396931 45.529251 15.679703 0.470825 5.380679 -96.117233 0.000000 0.000000 0.000000 13.453268 -10.301764 2.032149 20.347145 -12.525165 -13.713803 -17.087627 25.727978 -18.833578 -20.144287 -21.960112 -4.471758 -53.778336 -38.326424 27.981047 -90.797722 13.717274 16.181728 62.523819 6.175573 6.031781 2.972552 15.810911 -0.839363 59.413677 -5.665612 33.483601 68.923973 -12.784785 8.797972 -48.036961 8.794485 -11.104962 -34.171669 29.312847 -15.767524 40.082336 1.573586 -14.432832 4.965940 10.450757 -15.070264 -22.288746 -19.379242 -2.018459 55.232632 2.734659 15.465653 -19.071501 -25.486542 5.644447 
36.378105 45.381691 16.085089 1.030578 5.751029 -95.423599 0.000000 0.000000 0.000000 13.939151 -10.499380 2.047925 20.732794 -12.658713 -14.341343 -17.812506 26.882311 -19.905285 -19.911335 -22.326363 -4.479885 -54.611053 -37.838703 28.597446 -88.771507 11.958962 14.140951 62.772320 5.347579 5.854213 3.202211 16.208477 -0.902218 58.939335 -5.775001 31.940899 68.688217 -13.790880 9.323477 -48.175323 7.478654 -12.492701 -34.354435 29.511301 -16.518768 39.446735 1.465832 -14.598583 3.891447 10.991254 -17.919847 -22.909504 -19.667379 -2.482862 56.006859 2.472299 15.525745 -18.070803 -25.154572 6.777923 
36.361927 45.238811 16.499390 1.561927 6.218410 -94.713524 0.000000 0.000000 0.000000 14.316619 -10.700484 2.109496 21.097286 -12.876796 -15.004669 -18.386627 28.124886 -21.006498 -19.633680 -22.677835 -4.494824 -55.237263 -37.343620 29.048826 -86.600136 10.132192 12.092684 62.738308 4.328769 5.636909 3.464216 16.645409 -0.961916 58.636196 -5.942465 30.171537 68.270782 -14.758230 9.826597 -48.277081 6.223045 -13.771326 -34.748627 29.645452 -17.242294 39.010948 1.203253 -14.558277 2.415137 11.616849 -20.437468 -23.510504 -19.907541 -2.694614 56.579109 2.344275 15.405932 -17.166023 -24.902693 7.686872 
36.351944 45.098614 16.917637 2.075034 6.772942 -93.953804 0.000000 0.000000 0.000000 14.606317 -10.923675 2.172241 21.451782 -13.185891 -15.702989 -18.840275 29.445871 -22.132946 -19.292656 -22.966331 -4.468340 -55.738758 -36.887215 29.358534 -84.276619 8.279669 10.095862 62.424324 3.060643 5.427151 3.789705 17.120043 -1.047886 58.454971 -6.190143 28.157526 67.781662 -15.634573 10.300690 -48.343548 5.056937 -14.952944 -35.452736 29.714338 -17.880135 38.855301 0.832296 -14.414097 0.588507 12.244084 -22.364130 -24.100609 -20.106598 -2.639959 56.980831 2.363405 15.088043 -16.477491 -24.704441 8.292809 
